<svg width="23" height="17.5" viewBox="0 0 46 35" xmlns="http://www.w3.org/2000/svg"><title>add</title><path d="M2.305 13.112c-2.316 2.47-2.11 6.108-2.1 6.26.013.196.174.345.365.345h.024c.202-.014.357-.188.344-.39-.002-.035-.192-3.483 1.906-5.717 1.206-1.284 2.943-1.934 5.163-1.934h8.677l-6.008 6.552c-.137.15-.127.38.023.518.07.065.156.097.245.097.1 0 .198-.04.27-.12l6.572-7.166c.134-.148.127-.377-.02-.515L11.2 4.817c-.148-.14-.38-.133-.52.014-.14.15-.133.38.015.52l5.902 5.59h-8.59c-2.434 0-4.352.73-5.702 2.174zM45.485 0H30.218c-2.088 0-3.885 1.202-4.72 2.968C24.662 1.202 22.864 0 20.778 0H5.418C5.18.036 5 .273 5 .51v7.956c.276-.004.553-.01.83-.01.06-.01.124-.012.186-.018V1.02h14.76c2.342 0 4.212 1.856 4.212 4.15v26.944c-.962-1.33-2.45-2.24-4.212-2.24H6.016V16.786c-.34-.006-.677-.013-1.016-.018v13.617c0 .272.236.51.508.51h15.27c2.14 0 3.884 1.582 4.156 3.604 0 .416.617.634.89.325.036-.018.054-.037.072-.073.073-.072.127-.164.145-.255.276-2.022 2.037-3.606 4.18-3.606h15.27c.252 0 .506-.236.506-.51V.51c0-.273-.255-.51-.508-.51zm-.526 29.875H30.214c-1.76 0-3.268.91-4.212 2.24V5.17c0-2.294 1.87-4.15 4.212-4.15H44.96v28.855z" fill="#4A4A4A" fill-rule="evenodd"/></svg>