<svg width="18" height="12.5" viewBox="0 0 36 25" xmlns="http://www.w3.org/2000/svg"><title>Shape</title><path d="M.366 0C.16.026 0 .195 0 .365V21.72c0 .195.207.365.446.365h13.388c1.878 0 3.406 1.13 3.645 2.577 0 .3.54.455.78.234.03-.013.045-.026.06-.052.064-.052.11-.117.128-.182.24-1.445 1.782-2.577 3.66-2.577H35.5c.223 0 .445-.17.445-.365V.365C35.945.17 35.722 0 35.5 0H22.11c-1.83 0-3.405.86-4.137 2.122C17.24.86 15.663 0 13.833 0H.367zM.89.73h12.943c2.053 0 3.693 1.326 3.693 2.966v19.26c-.843-.95-2.15-1.6-3.693-1.6H.89V.73zm21.22 0h12.93v20.626H22.11c-1.543 0-2.864.65-3.692 1.6V3.696c0-1.64 1.64-2.966 3.693-2.966z" fill="#4A4A4A" fill-rule="evenodd"/></svg>