<?xml version="1.0" encoding="UTF-8" standalone="no"?>
<svg width="140px" height="41px" viewBox="0 0 140 41" version="1.1" xmlns="http://www.w3.org/2000/svg" xmlns:xlink="http://www.w3.org/1999/xlink" xmlns:sketch="http://www.bohemiancoding.com/sketch/ns">
    <!-- Generator: Sketch 3.3.3 (12081) - http://www.bohemiancoding.com/sketch -->
    <title>features</title>
    <desc>Created with Sketch.</desc>
    <defs></defs>
    <g id="Main" stroke="none" stroke-width="1" fill="none" fill-rule="evenodd" sketch:type="MSPage">
        <g id="XS---Item" sketch:type="MSArtboardGroup" transform="translate(-23.000000, -838.000000)">
            <g id="Guiala/Item" sketch:type="MSLayerGroup" transform="translate(-0.500000, 0.000000)">
                <g id="features" transform="translate(24.000000, 839.000000)" sketch:type="MSShapeGroup">
                    <g id="price">
                        <circle id="Oval-6" stroke="#979797" cx="19.5" cy="19.5" r="19.5"></circle>
                        <g id="Group-Copy" transform="translate(10.500000, 7.000000)" fill="#9B9B9B">
                            <path d="M16.8417864,5.77128206 L9.33644567,0 L1.83097606,5.77128206 C1.30694292,6.17423078 1,6.79602564 1,7.45487181 L1,22.8289744 C1,24.004359 1.95808472,24.9571795 3.13996317,24.9571795 L15.5329282,24.9571795 C16.7146777,24.9571795 17.6727624,24.004359 17.6727624,22.8289744 L17.6727624,7.45487181 C17.6727624,6.79602564 17.3659484,6.17423078 16.8417864,5.77128206 L16.8417864,5.77128206 L16.8417864,5.77128206 Z M16.6414549,22.8289744 C16.6414549,23.4369231 16.1442357,23.9315385 15.5329282,23.9315385 L3.13996317,23.9315385 C2.52865561,23.9315385 2.03130756,23.4369231 2.03130756,22.8289744 L2.03130756,7.45487181 C2.03130756,7.11602564 2.19232044,6.78987181 2.46187844,6.58269231 L9.33644567,1.29641026 L16.2110129,6.58269231 C16.4805709,6.78987181 16.6414549,7.11602564 16.6414549,7.45487181 L16.6414549,22.8289744 L16.6414549,22.8289744 Z M9.73014733,14.0083333 L9.73014733,10.1970513 C10.5272192,10.2870513 11.2576427,10.5847436 11.8458748,11.1273077 C12.0196501,11.2876923 12.2915286,11.2758974 12.4515101,11.1019231 C12.6120074,10.9274359 12.5992449,10.6560256 12.4232781,10.4971795 C11.7436464,9.88346153 10.8458932,9.48705128 9.73014733,9.39551283 L9.73014733,8.37089744 C9.73014733,8.17666667 9.57184161,8.01923078 9.37666667,8.01923078 C9.18136281,8.01923078 9.02305708,8.17666667 9.02305708,8.37089744 L9.02305708,9.39551283 C7.27099447,9.47115383 5.88762431,10.4994872 5.88762431,12.0724359 C5.88762431,13.8570513 7.45534069,14.3410256 9.02305708,14.7796154 L9.02305708,19.0142308 C7.92406997,18.9379487 7.06434622,18.4548718 6.45303867,17.8892308 C6.27062614,17.7205128 5.98585636,17.7312821 5.82239411,17.9183333 C5.6698895,18.0926923 5.68136281,18.3548718 5.84766114,18.5161538 C6.58723756,19.2337179 7.65618783,19.7341026 9.02305708,19.800641 L9.02305708,20.795 C9.02305708,20.9892308 9.18136281,21.1466667 9.37666667,21.1466667 C9.57184161,21.1466667 9.73014733,20.9892308 9.73014733,20.795 L9.73014733,19.800641 C12.1586188,19.649359 12.9577532,18.1975641 12.9577532,16.9574359 C12.9577532,15.0215385 11.3132044,14.4467949 9.73014733,14.0083333 L9.73014733,14.0083333 L9.73014733,14.0083333 Z M9.02305708,13.8116667 C7.82429097,13.4788462 6.80974217,13.0857692 6.80974217,12.0270513 C6.80974217,10.9985898 7.74732964,10.2424359 9.02305708,10.1819231 L9.02305708,13.8116667 L9.02305708,13.8116667 Z M9.73014733,19.0142308 L9.73014733,14.9762821 C10.9750644,15.3391026 12.0356354,15.7929487 12.0356354,17.0179487 C12.0356354,17.8344872 11.4976796,18.8780769 9.73014733,19.0142308 L9.73014733,19.0142308 L9.73014733,19.0142308 Z" id="Shape"></path>
                        </g>
                    </g>
                    <g id="access" transform="translate(50.000000, 0.000000)">
                        <circle id="Oval-6-Copy" stroke="#979797" cx="19.5" cy="19.5" r="19.5"></circle>
                        <g id="Group-Copy-2" transform="translate(11.500000, 14.000000)" fill="#9B9B9B">
                            <path d="M1.41931818,8.425 C1.44147727,8.72954545 1.51022727,9.56534091 1.81534091,9.54375 L3.20056818,9.44545455 L3.23636364,9.95681818 C3.25852273,10.2619318 3.28352273,11.1482955 3.58863636,11.1267045 L4.45511364,11.0647727 C4.75965909,11.0431818 4.95852273,10.1409091 4.93693182,9.83579545 L4.90113636,9.32443182 L11.7017045,8.84034091 L11.7380682,9.35170455 C11.7596591,9.65681818 11.8011364,10.5420455 12.10625,10.5204545 L12.95625,10.4602273 C13.2607955,10.4386364 13.4596591,9.53636364 13.4380682,9.23125 L13.4017045,8.71988636 L13.9363636,8.68181818 C14.2414773,8.66022727 15.0426136,7.76193182 15.0204545,7.45795455 L14.7465909,3.60056818 C14.7255682,3.30511364 13.93125,3.54261364 13.6056818,3.57670455 L13.45,1.38409091 C13.3926136,0.578977273 12.2159091,0.259659091 11.3676136,0.319886364 L3.17613636,0.902840909 C2.32784091,0.963068182 2.05795455,1.38522727 2.11534091,2.18977273 L2.27159091,4.38465909 L1.45284091,4.44318182 C1.14772727,4.46534091 1.12386364,4.26363636 1.14545455,4.56818182 L1.41931818,8.425 L1.41931818,8.425 Z M11.4488636,1.45340909 C11.7448864,1.43238636 12.3034091,1.28011364 12.3164773,1.46420455 L12.4721591,3.65909091 L10.8181818,3.77670455 C10.8181818,3.77670455 10.5318182,3.22727273 10.2278409,3.24886364 L9.96704545,3.26761364 C10.0380682,3.2625 10.0579545,2.80568182 10.0477273,2.66363636 C10.0193182,2.26420455 9.66477273,1.85568182 9.26477273,1.88352273 C8.86534091,1.91193182 8.57670455,2.42102273 8.60568182,2.82045455 C8.61590909,2.9625 8.69545455,3.35795455 8.76647727,3.35340909 L8.57443182,3.36704545 C8.26931818,3.38863636 8.06420455,3.97272727 8.06420455,3.97272727 L3.40454545,4.30397727 L3.24943182,2.10909091 C3.24715909,2.07329545 3.23295455,2.05170455 3.21647727,2.03693182 C3.23011364,2.03693182 3.23920455,2.0375 3.25625,2.03636364 L11.4488636,1.45340909 L11.4488636,1.45340909 Z" id="Shape"></path>
                            <path d="M10.7005682,19.6931818 C10.7232955,18.3017045 9.28352273,17.1994318 6.84886364,16.7573864 C2.23295455,15.9176136 1.19943182,14.8664773 1.17386364,14.6443182 C1.19147727,14.5920455 1.37159091,14.3761364 1.94602273,14.1960227 C4.17670455,13.4948864 4.59602273,12.65 4.54943182,11.6005682 C4.54772727,11.5556818 4.54545455,11.3636364 4.54545455,11.3636364 L3.40909091,11.3636364 C3.40909091,11.3636364 3.41136364,11.5886364 3.41420455,11.6511364 C3.43068182,12.0198864 3.45056818,12.5852273 1.60511364,13.1653409 C0.257954545,13.5886364 0.0102272727,14.2511364 0.0403409091,14.7323864 C0.142613636,16.3670455 3.68863636,17.3511364 6.64545455,17.8886364 C8.43125,18.2136364 9.57670455,18.9176136 9.56420455,19.68125 C9.54943182,20.5676136 7.72215909,22.5096591 0.911363636,23.5147727 L1.07784091,24.6392045 C7.06647727,23.7545455 10.6636364,21.9017045 10.7005682,19.6931818 L10.7005682,19.6931818 Z" id="Shape"></path>
                            <path d="M15.3715909,16.7528409 C10.7556818,15.9130682 9.72215909,14.8573864 9.69659091,14.6352273 C9.71420455,14.5829545 9.89431818,14.3590909 10.46875,14.1784091 C13.1948864,13.3215909 13.1579545,11.7051136 13.1426136,11.0448864 L13.1409091,10.7954545 L12.0045455,10.7954545 L12.0068182,11.0721591 C12.0193182,11.6102273 12.0386364,12.5647727 10.1278409,13.1653409 C8.78068182,13.5886364 8.53295455,14.2511364 8.56306818,14.7323864 C8.66534091,16.3670455 12.2113636,17.3511364 15.1681818,17.8886364 C16.9539773,18.2136364 18.0994318,18.9176136 18.0869318,19.68125 C18.0721591,20.5676136 16.2448864,22.5096591 9.43409091,23.5147727 L9.60056818,24.6392045 C15.5892045,23.7545455 19.1863636,21.9 19.2238636,19.6914773 C19.2460227,18.2994318 17.80625,17.1954545 15.3715909,16.7528409 L15.3715909,16.7528409 Z" id="Shape"></path>
                        </g>
                    </g>
                    <g id="hike" transform="translate(100.000000, 0.000000)">
                        <circle id="Oval-6-Copy-2" stroke="#979797" cx="19.5" cy="19.5" r="19.5"></circle>
                        <g id="icon" transform="translate(19.500000, 20.000000) rotate(-90.000000) translate(-19.500000, -20.000000) translate(8.000000, 7.000000)" stroke="#9B9B9B">
                            <rect id="Rectangle-384" x="0" y="21" width="23" height="5"></rect>
                            <rect id="Rectangle-384-Copy" x="0" y="13.5" width="16" height="5"></rect>
                            <rect id="Rectangle-384-Copy-2" fill="#9B9B9B" x="0" y="6.5" width="10" height="5"></rect>
                            <rect id="Rectangle-384-Copy-3" fill="#9B9B9B" x="0" y="0" width="6" height="5"></rect>
                        </g>
                    </g>
                </g>
            </g>
        </g>
    </g>
</svg>