<svg width="55.5" height="12" viewBox="0 0 111 24" xmlns="http://www.w3.org/2000/svg"><title>logo</title><g fill="none" fill-rule="evenodd"><text font-family="Ubuntu" font-size="28" transform="translate(-1 -4)"><tspan x="28" y="26" fill="#FF7769">Guia</tspan> <tspan x="84.588" y="26" fill="#FFB91E">La</tspan></text><g transform="rotate(45 6.88 14.12)"><rect fill="#FF7769" x=".102" y=".102" width="17.837" height="17.837" rx="2"/><path d="M.102 2.096C.102.996 1 .102 2.096.102h13.85c1.1 0 1.313.583.445 1.25 0 0-.553.702-2.45 1.37-1.81.64-4.73.352-5.19 1.095-.954 1.543-.335 3.556-.335 3.556.185 1.082-.437 2.41-1.395 2.973 0 0-2.565 1.502-3.84 2.253-1.504.882-2.324 3.48-2.324 3.48-.416 1.025-.753.96-.753-.137V2.093z" fill="#FFB91E"/></g></g></svg>