<svg width="44" height="62" viewBox="0 0 44 62" xmlns="http://www.w3.org/2000/svg"><title>map_icon 2</title><g fill="none" fill-rule="evenodd"><path d="M22 0C9.85 0 0 9.37 0 20.93s9.85 20.93 22 20.93c.224 0 .447-.01.673-.016L14.905 62h1.69S37.52 40.345 42.08 29.496C43.306 26.882 44 23.984 44 20.93 44 9.37 34.15 0 22 0z" opacity=".66" fill="#FFF"/><path d="M42.027 20.93c0-10.428-8.966-18.955-20.126-18.955-10.96 0-19.925 8.527-19.925 18.955 0 10.61 8.966 19.14 19.928 19.153.304-.014.507-.022.79 0L14.8 62h1.973c.075 0 19.357-23.31 23.48-33.172 1.146-2.39 1.777-5.027 1.777-7.898z" fill="#785CB9"/><path d="M22 35.936c-8.337 0-15.094-6.407-15.094-14.315C6.906 13.716 13.663 7.31 22 7.31s15.094 6.407 15.094 14.315c0 7.91-6.757 14.316-15.094 14.316z" fill="#FFF"/><ellipse fill="#785CB9" cx="22" cy="21.621" rx="8.188" ry="7.799"/></g></svg>