<svg viewBox="0 0 35 35" xmlns="http://www.w3.org/2000/svg"><title>pin</title><g transform="rotate(45 9.053 21.25)" stroke="#4A4A4A" fill="none" fill-rule="evenodd"><rect x=".142" y=".142" width="24.858" height="24.858" rx="2"/><path d="M.142 2.134c0-1.1.9-1.992 1.992-1.992h20.874c1.1 0 1.318.587.462 1.274 0 0-1.402 1.446-4.047 2.38-2.524.89-6.593.488-7.233 1.523-1.33 2.15-.365 5.715-.365 5.715.202 1.086-.412 2.423-1.36 2.978 0 0-4.257 2.496-6.036 3.543C2.33 18.79.87 23.15.87 23.15c-.402 1.02-.728.95-.728-.142V2.134z"/></g></svg>