<svg width="70" height="68.5" viewBox="0 0 140 137" xmlns="http://www.w3.org/2000/svg"><title>map</title><g fill="none" fill-rule="evenodd"><path d="M143.46 135.73c.077-.087.152-.175.227-.263V29.947c-14.912-17.47-37.094-28.544-61.86-28.544C36.922 1.403.52 37.803.52 82.707c0 20.26 7.41 38.788 19.668 53.024h123.27z" stroke="#66D9EF"/><g transform="rotate(45 -7.624 118.07)"><rect fill="#9CB1F8" x=".251" y=".251" width="43.936" height="43.936" rx="2"/><path d="M.25 2.253C.25 1.147 1.15.25 2.254.25h39.932c1.105 0 1.33.598.488 1.306 0 0-3.67 3.502-8.344 5.152-4.462 1.574-11.654.864-12.784 2.693-2.35 3.806-.396 11.64-.396 11.64.22 1.078-.378 2.4-1.33 2.96 0 0-8.848 5.188-11.99 7.038-3.704 2.18-6.87 11.29-6.87 11.29-.392 1.028-.71.964-.71-.14V2.253z" fill="#5174E8"/></g></g></svg>