<?xml version="1.0" encoding="UTF-8" standalone="no"?>
<svg width="28px" height="35px" viewBox="0 0 28 35" version="1.1" xmlns="http://www.w3.org/2000/svg" xmlns:xlink="http://www.w3.org/1999/xlink" xmlns:sketch="http://www.bohemiancoding.com/sketch/ns">
    <!-- Generator: Sketch 3.3.3 (12081) - http://www.bohemiancoding.com/sketch -->
    <title>profile</title>
    <desc>Created with Sketch.</desc>
    <defs></defs>
    <g id="Main" stroke="none" stroke-width="1" fill="none" fill-rule="evenodd" sketch:type="MSPage">
        <g id="XS--Settings" sketch:type="MSArtboardGroup" transform="translate(-330.000000, -12.000000)" fill="#4A4A4A">
            <g id="Guiala/Nav" sketch:type="MSLayerGroup">
                <g id="buttons" transform="translate(33.000000, 11.000000)" sketch:type="MSShapeGroup">
                    <g id="profile" transform="translate(297.000000, 1.000000)">
                        <path d="M22.3504498,18.1143782 C23.3036143,16.1566209 23.5255682,13.7054609 23.5255682,11.1715515 C23.5255682,4.48934659 19.6653488,0 13.9204545,0 C8.17517361,0 4.31495423,4.48934659 4.31495423,11.1719381 C4.31495423,13.7058475 4.53729482,16.1570076 5.49045928,18.1147648 C2.31195549,18.8208412 0,21.6389599 0,24.9713621 L0,33.7416351 C0,34.0618056 0.259848485,34.321654 0.580018939,34.321654 L27.2608902,34.321654 C27.5810606,34.321654 27.8409091,34.0618056 27.8409091,33.7416351 L27.8409091,24.9713621 C27.8409091,21.6385732 25.5289536,18.8204545 22.3504498,18.1143782 L22.3504498,18.1143782 Z M13.9204545,1.16003788 C19.0509154,1.16003788 22.3655303,5.08985953 22.3655303,11.1719381 C22.3655303,17.3526199 20.9529908,21.1834517 13.9204545,21.1834517 C6.88753157,21.1834517 5.47499211,17.3530066 5.47499211,11.1719381 C5.47499211,5.08985953 8.78999369,1.16003788 13.9204545,1.16003788 L13.9204545,1.16003788 Z M26.6808712,33.1616162 L22.1969381,33.1616162 L22.1969381,26.8212358 C22.1969381,26.5010653 21.9370896,26.2412169 21.6169192,26.2412169 C21.2967487,26.2412169 21.0369003,26.5010653 21.0369003,26.8212358 L21.0369003,33.1616162 L6.24912405,33.1616162 L6.24912405,26.8212358 C6.24912405,26.5010653 5.98927557,26.2412169 5.66910511,26.2412169 C5.34893466,26.2412169 5.08908617,26.5010653 5.08908617,26.8212358 L5.08908617,33.1616162 L1.16003788,33.1616162 L1.16003788,24.9713621 C1.16003788,22.0577336 3.27594697,19.6177872 6.12267992,19.1773595 C7.49732481,21.1045691 9.86960227,22.3431029 13.9204545,22.3431029 C17.9716935,22.3431029 20.3435843,21.1045691 21.7182292,19.1769729 C24.5649621,19.6174006 26.6808712,22.0581203 26.6808712,24.9713621 L26.6808712,33.1616162 L26.6808712,33.1616162 Z" id="Shape-Copy-8"></path>
                    </g>
                </g>
            </g>
        </g>
    </g>
</svg>