<?xml version="1.0" encoding="UTF-8" standalone="no"?>
<svg width="40px" height="42px" viewBox="0 0 40 42" version="1.1" xmlns="http://www.w3.org/2000/svg" xmlns:xlink="http://www.w3.org/1999/xlink" xmlns:sketch="http://www.bohemiancoding.com/sketch/ns">
    <!-- Generator: Sketch 3.3.3 (12081) - http://www.bohemiancoding.com/sketch -->
    <title>search</title>
    <desc>Created with Sketch.</desc>
    <defs></defs>
    <g id="My-Prototypes" stroke="none" stroke-width="1" fill="none" fill-rule="evenodd" sketch:type="MSPage">
        <g id="Filter" sketch:type="MSArtboardGroup" transform="translate(-107.000000, -32.000000)" fill="#4A4A4A">
            <g sketch:type="MSLayerGroup" transform="translate(69.000000, 23.000000)" id="search">
                <g transform="translate(38.000000, 9.000000)" sketch:type="MSShapeGroup">
                    <path d="M16.0434515,0.5 C11.9358982,0.5 7.82891632,2.06576184 4.68767806,5.18128502 C-1.56222602,11.4283319 -1.56222602,21.5577824 4.68767806,27.8054007 C10.7278615,33.8130117 20.3915835,34.0204465 26.6894891,28.4282767 L39.2207268,40.9389424 C39.3984465,41.1149477 39.70417,41.1149477 39.8653178,40.9549428 C40.042466,40.7955094 40.042466,40.4754997 39.8813183,40.3160663 L27.3340801,27.8054007 C27.3500806,27.7894002 27.3500806,27.7894002 27.3666525,27.7894002 C33.6165566,21.5423533 33.6325571,11.4289033 27.382653,5.18128502 C24.2574152,2.06576184 20.1504334,0.5 16.0434515,0.5 L16.0434515,0.5 L16.0434515,0.5 Z M16.0434515,1.39488432 C19.9092832,1.39488432 23.7905439,2.86464324 26.738062,5.82073301 C32.6496701,11.7163406 32.6496701,21.254916 26.738062,27.1505236 C20.8270253,33.0461312 11.2598777,33.0461312 5.34826955,27.1505236 C-0.563338544,21.254916 -0.563338544,11.7163406 5.34826955,5.82073301 C8.29578764,2.86464324 12.1776198,1.39488432 16.0434515,1.39488432 L16.0434515,1.39488432 L16.0434515,1.39488432 Z"></path>
                </g>
            </g>
        </g>
    </g>
</svg>